# xmcd
#
# Track frame offsets:
#	150
#	12765
#	24051
#	39382
#	51231
#	62387
#	78612
#	93237
#	108539
#	120805
#	134743
#	150017
#	164302
#	178094
#	192971
#	207983
#
# Disc length: 2970 seconds
#
# Revision: 0
# Processed by: cddbd v1.5.2PL0 Copyright (c) Steve Scherf et al.
# Submitted via: EasyCDDAExtractor 16.0.6.1
#
DISCID=bf0b9810
DTITLE=Χατζηαντωνίου Γιώργος - Τραγούδια 45 στροφές-Χατζηαντωνίου Γιώργος 1
DYEAR=1997
DGENRE=Λαϊκή
TTITLE0=Χατζηαντωνίου Γιώργος - Η αγάπη δεν κοιτάζει χρόνια [Γιάννη Καραμπεσίν
TTITLE0=η]
TTITLE1=Χατζηαντωνίου Γιώργος - Ο πύργος [Νίκου Δαλέζιου]
TTITLE2=Χατζηαντωνίου Γιώργος - Λάθος πήρες μονοπάτι [Γ. Λαύκα-Σπ. Τσιλιβερδή]
TTITLE3=Χατζηαντωνίου Γιώργος - Συννεφιασμένοι ορίζοντες [Γ. Καραμπεσίνη-Φ. Φι
TTITLE3=λέρη]
TTITLE4=Χατζηαντωνίου Γιώργος - Για το φουστάνι [Άκη Πάνου]
TTITLE5=Χατζηαντωνίου Γιώργος - Φωτιά θα βάλω να καώ [Νίκου Δαλέζιου]
TTITLE6=Χατζηαντωνίου Γιώργος - Αγάπη μου σαν έφυγες [Κ. Παπαδόπουλου-Γ. Βρούβ
TTITLE6=α]
TTITLE7=Χατζηαντωνίου Γιώργος - Γιατί αλλιώτικα με βλέπεις [Νίκου Δαλέζιου]
TTITLE8=Χατζηαντωνίου Γιώργος - Πάντα με την αξία μου [Γιάννη Καραμπεσίνη]
TTITLE9=Χατζηαντωνίου Γιώργος - Θέλω να ζήσω στ' αστέρια [Λ. Καρνέζη-Ηρ. Παπασ
TTITLE9=ιδέρη]
TTITLE10=Χατζηαντωνίου Γιώργος - Παντού να ψάξω, να σε βρω [Γιώργου Λαύκα]
TTITLE11=Χατζηαντωνίου Γιώργος-Γκίκα Βούλα - Σταμάτα Σταματούλα [Νίκου Καρανικ
TTITLE11=όλα]
TTITLE12=Χατζηαντωνίου Γιώργος - Αν ψάξεις μέσ' στον πόνο μου [Λ. Καρνέζη-Ηρ. 
TTITLE12=Παπασιδέρη]
TTITLE13=Χατζηαντωνίου Γιώργος - Τι περιμένεις [Γιάννη Καραμπεσίνη]
TTITLE14=Χατζηαντωνίου Γιώργος-Λαμπράκη Χαρούλα - Βάλε στο τζάκι σου φωτιά [Αν
TTITLE14=τ. Κατινάρη]
TTITLE15=Χατζηαντωνίου Γιώργος - Δεν θα μπορέσω νά 'ρθω [Νίκου Δαλέζιου]
EXTD=
EXTT0=
EXTT1=
EXTT2=
EXTT3=
EXTT4=
EXTT5=
EXTT6=
EXTT7=
EXTT8=
EXTT9=
EXTT10=
EXTT11=
EXTT12=
EXTT13=
EXTT14=
EXTT15=
PLAYORDER=
